<svg width="1004" height="813" viewBox="0 0 1004 813" fill="none" xmlns="http://www.w3.org/2000/svg">
<g clip-path="url(#clip0_27_866)">
<rect width="1004" height="813" fill="white"/>
<rect x="-77" y="-65" width="1517" height="1089" fill="#1E1E1E"/>
<path d="M777.78 634.593L772.692 630.014L771.166 575.572L787.956 534.868L864.276 523.674L933.982 530.798L935 642.734C929.912 640.699 868.347 623.908 864.276 623.4C861.02 622.993 846.638 617.464 839.854 614.75C834.155 614.75 822.894 613.054 817.975 612.206V634.593H777.78Z" fill="#1E1E1E" stroke="white" stroke-width="5.08803"/>
<path d="M741.146 583.713C740.739 577.2 734.871 574.894 731.988 574.555L706.039 538.938L644.982 510.954L569.68 437.178L512.185 362.893L518.799 333.382L567.136 326.768L601.225 346.611L650.579 350.681L746.234 389.859L790.5 413.264L802.202 421.405L893.278 462.109L917.701 468.215L933.982 479.917V534.359H902.945L899.893 541.482L884.12 538.938L883.102 546.062C871.705 547.69 857.323 541.991 851.556 538.938H839.345L832.731 531.815L830.695 540.465H808.817L796.097 547.588C797.114 550.641 799.15 557.968 799.15 562.852C799.15 567.737 805.594 578.795 808.817 583.713L812.887 603.556L801.694 618.312C793.892 621.364 777.475 627.877 774.218 629.505C770.148 631.54 761.498 626.452 760.989 624.926C760.481 623.4 758.445 616.276 755.901 615.768C753.357 615.259 750.813 609.662 750.813 608.136C750.813 606.914 746.064 602.878 743.69 601.012C743.012 597.96 741.553 590.226 741.146 583.713Z" fill="#1E1E1E" stroke="white" stroke-width="5.08803"/>
<path d="M802.712 617.237L769.845 629.878C763.778 629.878 759.901 624.484 758.721 621.788C758.316 619.36 754.844 615.72 753.159 614.203C752.822 612.012 751.136 607.023 747.091 604.596C743.046 602.168 742.709 599.876 743.046 599.033C743.72 595.662 744.259 588.213 741.023 585.381C737.787 582.549 728.551 566.335 724.337 558.582C717.056 544.828 714.224 536.67 713.718 534.311C711.696 519.343 715.235 511.219 717.258 509.028C712.201 505.32 701.279 497.095 698.043 493.859C693.998 489.813 690.458 487.791 683.885 487.791C678.626 487.791 673.604 484.757 671.749 483.24C662.85 476.363 652.198 478.015 647.984 479.701C644.444 480.88 636.152 482.937 631.298 481.723C625.23 480.206 632.815 470.599 635.343 466.048C637.871 461.497 643.433 463.52 651.524 463.014C657.996 462.61 665.345 450.373 668.21 444.305C670.064 441.103 674.783 434.293 678.829 432.675C682.874 431.057 683.885 427.956 683.885 426.608C683.885 421.888 681.863 411.337 673.772 406.887C665.682 402.438 662.985 396.606 662.648 394.246C662.311 392.392 660.221 387.875 654.558 384.639C648.894 381.403 648.49 376.211 648.995 374.02C649.333 371.829 650.411 367.244 652.029 366.435C653.647 365.626 656.412 358.682 657.591 355.311C660.12 352.446 666.693 347.221 672.761 349.243C678.829 351.266 682.705 349.412 683.885 348.232C691.975 342.67 695.009 344.693 699.56 345.198C704.111 345.704 703.1 342.67 703.1 341.153C703.1 339.636 706.639 338.119 711.696 338.119C715.741 338.119 717.426 339.468 717.764 340.142C718.977 343.782 724.337 347.052 726.865 348.232L734.956 367.447L764.789 388.684L797.15 421.045L892.212 464.025L913.955 469.588C908.056 475.318 894.437 486.78 887.155 486.78L913.955 514.085L918 535.254L900.808 535.827L897.269 541.895L882.099 540.378V546.952L860.862 544.929L850.243 539.367H838.108L831.534 533.805L829.512 541.895H808.274L794.622 547.963L800.184 571.223L807.263 584.37L811.308 604.596L802.712 617.237Z" fill="#5C1313"/>
<path d="M741.146 583.713C740.739 577.2 734.871 574.894 731.988 574.555L706.039 538.938L644.982 510.954L569.68 437.178L512.185 362.893L518.799 333.382L567.136 326.768L601.225 346.611L650.579 350.681L746.234 389.859L790.5 413.264L802.202 421.405L893.278 462.109L917.701 468.215L933.982 479.917V534.359H902.945L899.893 541.482L884.12 538.938L883.102 546.062C871.705 547.69 857.323 541.991 851.556 538.938H839.345L832.731 531.815L830.695 540.465H808.817L796.097 547.588C797.114 550.641 799.15 557.968 799.15 562.852C799.15 567.737 805.594 578.795 808.817 583.713L812.887 603.556L801.694 618.312C793.892 621.364 777.475 627.877 774.218 629.505C770.148 631.54 761.498 626.452 760.989 624.926C760.481 623.4 758.445 616.276 755.901 615.768C753.357 615.259 750.813 609.662 750.813 608.136C750.813 606.914 746.064 602.878 743.69 601.012C743.012 597.96 741.553 590.226 741.146 583.713Z" stroke="white" stroke-width="5.08803"/>
<path d="M352.93 207.708V188.373H302.049V293.695L442.988 377.139L470.972 353.734L484.71 352.716L497.938 339.996C509.743 336.333 517.103 339.487 519.308 341.523L529.484 336.943L555.433 341.523L569.68 338.979C577.82 341.828 593.085 352.716 599.699 357.804H614.454L638.368 366.963L659.229 364.928L668.387 371.033L712.653 389.859L787.956 409.193L787.876 409.101C784.654 405.341 769.998 388.238 752.34 377.139C738.093 368.184 734.871 363.91 735.041 362.892C731.784 349.46 727.239 345.084 725.373 344.576C724.356 344.915 721.913 344.779 720.285 341.523C718.25 337.452 716.724 335.926 710.618 335.417C705.733 335.01 703.834 340.335 703.495 343.049C693.319 338.979 682.295 344.745 678.055 348.137L668.387 345.593L666.861 339.996C665.674 335.926 661.569 327.683 654.65 327.276C647.73 326.869 644.982 324.393 644.474 323.206C641.624 317.507 637.859 316.083 636.333 316.083C632.262 316.083 632.262 324.902 632.771 329.311H625.648C625.139 330.159 622.9 331.754 618.016 331.347C613.131 330.94 609.536 340.675 608.349 345.593L606.822 338.979C599.088 333.28 597.494 327.446 597.664 325.241C596.646 321.171 584.944 310.486 584.944 317.609C584.944 323.308 579.516 323.715 576.803 323.206C574.768 322.527 571.104 320.865 572.732 319.644C574.361 318.423 572.732 315.743 571.715 314.556C570.358 311.843 568.051 305.907 569.68 303.871C571.715 301.327 572.224 298.274 569.68 298.274C567.644 298.274 565.44 300.31 564.592 301.327L559.504 307.433C557.638 307.942 552.686 309.265 547.801 310.486C542.917 311.707 543.052 308.959 543.731 307.433L546.783 299.801C549.327 297.257 548.819 288.098 536.099 289.116C525.923 289.93 527.449 302.684 529.484 308.959H515.238V314.556C506.69 313.335 500.143 318.457 497.938 321.171C491.324 314.556 502.009 308.959 504.553 308.959C507.097 308.959 510.15 305.907 510.15 303.871C510.15 302.243 512.524 300.479 513.711 299.801C515.238 299.292 517.375 297.359 513.711 293.695C510.048 290.032 504.383 292.169 502.009 293.695C499.804 295.222 493.97 297.969 488.271 296.748C482.573 295.527 482.166 285.046 482.674 279.958C486.338 283.214 492.681 281.314 495.394 279.958L486.236 269.273H497.938C498.956 267.577 500.381 263.371 497.938 260.114C494.886 256.044 487.762 253.5 486.236 253.5C485.015 253.5 479.282 250.108 476.569 248.412H457.234C454.012 247.055 447.872 245.155 449.093 248.412C450.314 251.668 446.21 250.786 444.005 249.938C439.935 247.733 430.776 243.12 426.706 242.306C422.636 241.492 421.618 243.324 421.618 244.341C424.671 250.447 425.18 248.412 431.794 253.5C437.086 257.57 444.514 271.138 447.567 277.414C450.281 276.905 456.013 277.414 457.234 283.519C458.455 289.625 466.901 295.9 470.972 298.274L464.866 302.345L470.972 312.012L464.866 325.241V319.644C465.273 309.875 457.573 303.362 453.673 301.327L442.988 296.748C442.479 294.374 441.36 289.32 440.952 288.098C440.444 286.572 436.882 288.607 435.356 293.695C434.135 297.766 431.116 298.444 429.759 298.274C428.911 297.766 426.808 296.748 425.18 296.748C423.551 296.748 423.144 302.175 423.144 304.889C421.516 310.18 417.039 308.79 415.004 307.433C415.411 303.362 410.764 299.631 408.389 298.274C423.45 288.505 425.858 274.87 425.18 269.273L411.951 267.746L396.178 260.114C390.072 258.079 387.528 261.98 387.019 264.185C385.391 257.672 389.055 255.026 391.09 254.517L402.283 253.5C408.389 249.022 405.845 246.885 403.81 246.377L396.178 243.324C393.329 243.324 393.973 239.932 394.651 238.236L396.178 233.148C394.143 226.635 389.903 228.738 388.037 230.604L383.967 238.236L368.702 243.324L362.088 238.236L374.299 233.148L370.229 226.024L375.317 223.48L377.861 220.428L371.755 213.813L352.93 207.708Z" fill="#1E1E1E" stroke="white" stroke-width="5.08803"/>
<path d="M484.709 352.717L471.989 354.243L465.884 390.368L546.783 432.599V483.988V551.15H597.664H607.331L614.963 554.203L623.104 547.588H632.771L638.368 545.553C643.965 547.758 657.194 551.251 665.335 547.588C673.475 543.925 682.634 543.009 686.195 543.009C695.15 543.416 706.208 555.729 710.618 561.835V569.975C711.432 574.046 715.706 576.081 717.741 576.59C720.455 576.251 726.493 575.47 728.935 575.063C731.377 574.656 729.952 570.145 728.935 567.94L713.671 535.886V519.604L717.741 507.393C712.823 504.509 702.172 497.522 698.915 492.637C695.659 487.753 690.435 486.532 688.231 486.532H679.072L660.755 476.864C656.854 476.695 648.035 477.068 643.965 479.917C638.877 483.479 635.315 481.444 631.754 479.917C628.904 478.696 628.87 476.356 629.21 475.338L635.315 463.127L641.93 460.583L629.21 445.319L627.174 429.037C625.546 420.082 620.39 417.165 618.016 416.826L586.979 415.299L581.891 422.931L579.347 418.352C575.683 415.91 573.411 408.515 572.732 405.123C572.054 402.41 569.578 396.779 565.1 395.965C560.623 395.151 557.808 383.414 556.959 377.648C556.451 369.507 545.766 367.472 544.748 367.472C543.731 367.472 535.59 361.366 535.081 357.805C534.674 354.955 532.876 352.547 532.028 351.699C528.127 348.307 518.799 341.116 512.694 339.488C506.588 337.86 497.938 340.845 494.377 342.541L484.709 352.717Z" fill="#1E1E1E" stroke="white" stroke-width="5.08803"/>
<path d="M187.06 188.882V135.967H264.398L280.68 167.513L233.87 216.358L242.011 302.345L331.56 346.611L517.782 447.863V589.819L469.445 573.537L444.005 543.518L428.741 545.044L423.653 540.974H402.283L386.511 555.22H382.44C379.896 558.103 373.282 565.193 367.176 570.484C361.07 575.776 356.83 578.116 355.474 578.625C355.134 578.795 352.116 580.05 342.754 583.713C333.392 587.377 327.32 585.918 325.454 584.731L312.225 579.134C309.512 577.777 302.253 575.267 294.926 576.081C287.599 576.895 289.499 581.508 291.364 583.713C295.842 587.377 295.604 591.006 294.926 592.363L292.382 599.486L306.629 630.014H242.011V604.574C233.463 604.574 226.238 603.217 223.694 602.539C216.774 599.283 207.921 592.702 204.359 589.819H202.833C192.657 590.633 190.113 586.088 190.113 583.713C189.604 581.508 187.365 576.997 182.481 576.59C177.596 576.183 176.036 572.35 175.866 570.484V562.852H195.201V531.307H176.884V474.321H200.289V464.145H196.218L192.657 456.004L176.884 453.46V425.984H186.551V414.791H174.849V418.861H159.585V411.738H125.495V391.895H92.4225V380.701H86.3169V370.016H73.088L68 348.138L70.544 346.611V320.662H98.5282V310.995H156.023V291.152H170.269V278.94H202.324V268.256H155.005V188.882H187.06Z" fill="#1E1E1E" stroke="white" stroke-width="5.08803"/>
<path d="M216.062 146.651L188.077 135.458L231.835 122.229L249.643 120.702L264.398 111.035L278.136 112.562L283.732 109L312.225 120.702L320.366 118.158C321.384 118.498 324.945 119.787 331.051 122.229C337.157 124.671 337.666 127.656 337.157 128.843L333.086 134.949V143.09C333.086 152.452 340.888 159.202 344.789 161.407C346.994 162.764 352.421 166.698 356.491 171.583C360.562 176.467 355.813 186.508 352.93 190.917L334.104 207.708H327.489L331.051 214.831C332.069 214.661 334.511 215.035 336.139 217.884C337.767 220.733 334.782 222.463 333.086 222.972L341.227 229.586L337.157 234.165L341.227 238.745C348.147 245.664 350.216 253.5 350.386 256.553C351.234 260.623 354.354 269.985 360.053 274.87C365.751 279.754 369.551 287.759 370.738 291.151C368.703 296.85 366.837 309.129 366.159 314.556L373.282 322.697L412.46 320.662L418.056 316.083H432.303C437.594 320.967 445.362 323.884 448.585 324.732L471.481 353.225C471.074 366.251 472.668 371.203 473.516 372.051C475.042 375.273 478.909 382.532 482.166 385.789C486.236 389.859 498.956 398.509 507.097 398.509C513.61 398.509 520.326 400.883 522.87 402.07C545.257 412.246 548.31 418.352 553.907 422.931C558.384 426.595 558.825 450.915 558.486 462.618L569.68 477.882V507.901H561.03V523.165C568.323 527.575 584.537 537.412 591.049 541.482C597.562 545.553 598.173 549.962 597.664 551.658L588.505 559.29L581.382 560.817C579.347 560.817 575.684 561.733 577.312 565.396C578.94 569.06 583.757 568.619 585.961 567.94L592.067 572.519L599.699 569.467C599.36 570.484 599.699 572.723 603.769 573.537C607.84 574.351 607.84 577.607 607.331 579.134C603.769 579.643 595.73 580.762 592.067 581.169C587.488 581.678 588.505 586.257 588.505 588.292C588.505 589.92 586.809 594.398 585.961 596.433L579.347 604.574C577.99 605.083 575.48 607.118 576.294 611.188C577.108 615.259 581.043 617.633 582.909 618.312L595.629 625.435V631.541L584.944 645.278C580.873 646.499 576.803 649.179 575.276 650.366C572.054 653.08 567.746 661.458 576.294 673.262C584.842 685.067 596.816 688.357 601.734 688.526L612.928 687L618.016 681.912C621.069 680.894 622.595 681.912 623.613 682.93C624.427 683.744 623.274 687 622.595 688.526L606.313 704.808H488.271V694.123L492.85 684.965L528.975 652.91L520.835 642.225L509.641 635.102L492.85 611.188L486.236 590.327L469.954 573.537L490.306 572.519L495.394 560.817H504.553V527.745H486.236V511.972H472.498V487.04H429.25V478.391H438.917V467.706H442.479L441.461 456.004L444.005 449.898V441.248L450.62 432.599L424.162 409.702L396.687 394.947L376.335 390.877V380.701H360.562C352.421 377.818 333.392 371.542 322.401 369.507C311.411 367.472 289.329 357.805 279.662 353.225C274.913 350.681 263.38 345.492 255.239 345.085C247.099 344.677 231.495 339.488 224.711 336.944L216.57 323.206V300.819L214.026 270.29C211.177 267.034 203.002 265.202 199.271 264.694L194.692 254.009C187.772 245.054 185.025 236.031 184.516 232.639L193.674 209.743L201.815 199.567L229.291 191.426L257.275 175.653L262.363 167.004L260.836 160.389L241.502 153.266L216.062 146.651Z" fill="#1E1E1E" stroke="white" stroke-width="5.08803"/>
<path d="M671 349.119L657.5 356.119L654 362.682L660 362.119L669.5 368.619L713.5 387.119L780.5 404.619C772.5 393.619 742.5 373.119 738.5 370.619C735.3 368.619 733.167 365.119 732.5 363.619C730.9 356.419 726.833 349.619 725 347.119C721 347.519 718 342.952 717 340.619C715.5 339.119 713 337.619 709.5 338.119C706.7 338.519 705.667 343.952 705.5 346.619C693.9 341.019 683 347.286 679 351.119L671 349.119Z" fill="#5C1313"/>
<path d="M359 344.619L356 349.619L362.5 350.619L363.5 346.619L359 344.619Z" stroke="black"/>
<path d="M316.5 169.119V171.619V172.119H318.5V171.119H321.5V172.119H323V174.119L324.5 175.619H316.5V177.619H314.5V178.119H310V179.119H303.5V186.619H304.5V189.119L305.5 190.619L308 191.119V193.619H303V189.119H299V188.119H296L290.5 192.119V194.119L293.5 194.619L297.5 197.619L300 202.119L303.5 202.619L305 202.119L305.5 200.119V198.619L303 197.619V195.119H305L307.5 196.119V204.119L310 206.619H313.5L320 209.619V211.619L317 212.119V217.119L318 218.119H320.5L321.5 220.619L324 221.119L324.5 222.119L325.5 224.619H328L329 223.619L334.5 222.119L336 218.619L333 216.119L329.5 213.119L328 208.619L331.5 206.619V204.119H334.5V202.119L339.5 197.119V194.619H338V193.619H337.5V192.619H334.5L333 194.119L332.5 193.619H331V192.619H329L325 190.619V184.119H328L329.5 182.619V180.619H329V177.619L334.5 174.119L336 171.619L327.5 164.119H325L323.5 165.619V167.619H318.5L316.5 169.119Z" fill="#B28727"/>
<path d="M301.5 218.619H307.5H313V216.119L309.5 213.119H305.5V214.119H300.5L295 216.119V217.619H301.5V218.619Z" fill="#B28727"/>
<path d="M302.5 222.619H306.5L316.5 227.619V230.119L307.5 229.119L302.5 226.619V222.619Z" fill="#B28727"/>
<path d="M249 245.119V247.119H243V249.119L244.5 250.619L243 252.619L238.5 253.119L236.5 254.619V256.119H238.5L236.5 260.619L233.5 261.619V258.619H230.5V262.619L233.5 264.619V269.619L235.5 272.119L222 282.619L218.5 287.619H216.5L213.5 290.619L209 289.619V295.119L211 299.119L212 303.119L215 302.619V305.619L211.5 307.119V309.119L208.5 307.119L205.5 308.619V310.119H208.5V312.119H207.5V314.119H210L211 315.619L213.5 314.119L217.5 315.119L220.5 312.119L219 309.619L219.5 305.619H222L224 304.119V301.119L219.5 299.119V295.619H226L226.5 299.119H233L233.5 304.119L235.5 299.119H238L242 302.619V304.119V305.619L240 308.119V309.619L242 311.119V313.119H240L238 315.619L240 317.619H242.5V318.619L241 320.119L240.5 318.619H239V320.119L237.5 321.619V324.619L240.5 325.619V328.119H243.5V324.619H245.5L246 329.619L250 335.619H252V331.619V328.619L250 328.119V326.619L253.5 322.619L260 325.619V322.619H263.5V320.119L260.5 318.619L258 315.119H255.5V316.619H251L250.5 320.119L248 315.119V309.119L249 307.119L252 308.619V313.119H255V311.119H257.5V307.119L254 302.619L257.5 296.619L263.5 297.619V302.619L264.5 305.619V308.619L266.5 311.119H270V307.119L271.5 304.119H268.5L267 305.119L265.5 305.619L265 302.619L265.5 298.119L267 297.619L269.5 298.619V296.619H272.5V293.619L267 291.619V289.619H271.5L274 286.119L270 279.619H252H245L240 272.119V267.619L238.5 266.619L239.5 264.619L245 262.619V261.119H241L238.5 258.619L240 256.119L245 253.119L248 254.619L249.5 253.619V251.619L247 251.119L251 249.619L250.5 245.119H249Z" fill="#B28727"/>
<path d="M268.5 334.119L269.5 330.619L277 334.119L278 339.119L276 341.619V345.119H267.5V338.119L271 337.119V334.119H268.5Z" fill="#B28727"/>
<path d="M486.5 264.619L484 267.119L484.5 269.619L491 275.619L493.5 280.619L487.5 281.619L481 280.619L484 292.619L485.5 295.619L501.5 294.619L503.5 297.119L509 297.619L510 295.619H513L512 298.619L504 299.119L504.5 301.119H494.5V302.619L503 304.119L506 306.619L498.5 310.119H491L492.5 314.619L495 319.619H489.5L485.5 317.119L483 316.619L480.5 319.619H477.5L477 319.119H475.5L474 320.619L477.5 325.619L475.5 327.619V331.619H473L472.5 333.119L474 334.119L468.5 339.619H466V335.619V332.619H471V329.619L470 324.619L461 323.619H457L453.5 326.119L451.5 322.619L439.5 321.619L435 319.119L430.5 320.619L428.5 318.119L429 314.619L427.5 311.619L428.5 310.119H430.5L432 313.619L439.5 319.619L445.5 320.619H450V318.119L453.5 317.119L452.5 313.619L450 313.119L448.5 311.119L446.5 310.119V304.119L443 302.119L442.5 298.619L446.5 297.619L458 303.119L462.5 309.119L463.5 316.619L471 317.119L477 316.619L482 315.119V313.619L479.5 313.119V310.619L483 310.119L485.5 312.619L486.5 307.619L484 305.119V301.119L481.5 300.119L480.5 298.619V295.619L479 293.619L476 291.119L471 287.619L466 284.119L462.5 277.119H459V274.619H456.5L450 270.119L448.5 271.119L444.5 271.619L444 268.119L445.5 264.619H448L446.5 267.119L450 268.619L454 270.119L461 273.619V269.619L452.5 264.619L448 263.119V262.119H445.5L442.5 260.119V258.119H443.5V256.619H441.5V254.619H445.5L452 259.119L458 258.119L461 261.119L463.5 259.119L459 254.619L458 251.619H460.5L462.5 253.619L466 254.619L468.5 258.119L474 261.119L476 259.119L471 257.619V256.619L478.5 257.619L479 259.119H481V256.619H480V254.619L486.5 258.119L484.5 263.119L486.5 264.619Z" fill="#B28727"/>
<path d="M371.5 258.619L368.5 262.119L373 266.119V270.119L371.5 274.119H367.5L362.5 269.119H358.5V266.119L364.5 261.119V259.119L358.5 258.119L354 253.619V249.119L358.5 245.119H362.5L368.5 248.619L377.5 251.619L381 252.619L380.5 259.119L383 262.119L381 264.619L378.5 262.119L373 261.119V258.619H371.5Z" fill="#B28727"/>
<path d="M396 267.619L397.5 268.619L399.5 272.119H402.5L405.5 274.619L408 283.119L409.5 287.619L407.5 291.119H402L398.5 294.619L397.5 293.119L394.5 293.619L397 296.119L396 297.619H393L391 296.119H382.5V308.619L385.5 311.619L384.5 307.119L385.5 306.119L384.5 305.119L386 302.119L387 303.619H390.5L392.5 305.619L394.5 303.619H398.5V306.119L400.5 309.119L403 310.119L404.5 308.619L401 306.119V302.619L412.5 302.119L413.5 305.619L408 313.119L405.5 313.619L406.5 317.119L407.5 320.119H411L412 318.119L413 314.619L414.5 311.619H416.5V310.619H419.5L417.5 317.119L412 321.119H407L403 322.619L402.5 325.119L397 327.619L391 329.619L390.5 329.119L386 327.619V333.119L391 334.119L386.5 335.619V337.619L389 338.619L389.5 340.619L384 343.119L381 341.119L379 346.619H382.5L385 348.619L381.5 355.619L371.5 359.119L364 356.619L357 346.119L355 345.619L352 346.619L350.5 345.119L355.5 339.119L360 342.119L363 345.119V342.119H366L367.5 343.619H369V340.619H370L371 343.119H376L372 339.619V334.119L366 332.619V335.619H364V333.619H360L359 331.119H356.5L355.5 326.119L365 324.119L370 321.119L371.5 315.619L370 314.119L367.5 317.119L366 314.619L366.5 310.119L369 310.619V308.119L366.5 306.119L367.5 300.119H369L371 299.619L374 294.619L377 291.119L380.5 289.619L387 284.119L391.5 287.619L396 285.119L398.5 283.119L400.5 279.619V275.119H396L393.5 270.119L396 267.619Z" fill="#B28727"/>
<path d="M363 296.619L367.5 299.619L365.5 304.119L359.5 299.119L356.5 302.619L361 306.619L362.5 308.619L359.5 309.119L354.5 302.619L352 303.119V305.619L342.5 298.619L336.5 293.119L334.5 295.619L336.5 304.119L332 304.619L329.5 302.119L322 304.619L323 306.619V309.619H318L320.5 311.119L320 314.619L318 312.619L314 312.119L315 316.619H313.5L314 320.119L318 318.619L327 316.619L327.5 318.619L325 322.619L324 327.619L327.5 330.619L326.5 326.619L331 327.119V329.119H330V330.619H333L333.5 333.619H328.5L330 337.119L322.5 337.619L320.5 341.119L334 348.119L339 349.619V354.119L338 355.619L337 354.119L329 352.619L318.5 350.619L316 346.119L315 340.619L313.5 334.119L312 333.619L306.5 331.619L301 334.119L306 335.119L309.5 333.619L312.5 335.619L313.5 339.619L309.5 343.619L301 343.119L297 339.619L296 336.119L294.5 337.619L296 340.619L300 344.619L295.5 345.119L290.5 348.619V351.119L297 348.119H302.5L303 350.619L300 355.119L300.5 358.119L305.5 355.119L306 352.119H312L313.5 354.119H318L319 355.619L316.5 356.619V358.619L323.5 356.619L321 369.119L309.5 366.119L294.5 360.619L281.5 353.619L283 348.119H287.5L289.5 345.119V340.619L286.5 336.119V333.119L293.5 327.619H300V324.619L294.5 322.119L291 317.619V315.619H295.5L297 317.619H300L302.5 323.619H312V319.619L311 316.619L305.5 315.619V314.119L304.5 313.619V311.119L306.5 309.619V307.619L302 307.119L303.5 309.619L301.5 311.119H298.5V309.619H296L295.5 304.619L293.5 302.119H287.5L286.5 300.619L291 297.119H295.5L296 295.619H298.5L301.5 300.619L304.5 305.619L307 306.619L307.5 304.119L312.5 303.119V299.619L316.5 299.119L320.5 303.119L328.5 300.119L327 292.119L331 289.119L334.5 286.119L326.5 281.119V279.619L334.5 274.119H337.5V272.619L334.5 271.619L338.5 266.119V264.119L335.5 261.619L334.5 256.619L329 253.119L326.5 255.119L329.5 263.119V266.119H314V265.119H311L310 263.119L303.5 261.619V260.619L307.5 259.619L310 261.619H314L319.5 265.119L323.5 264.119L324.5 259.619L317.5 257.619L314 252.619L312.5 248.619L308.5 246.619H302.5L303.5 243.119L305.5 242.119V241.619H307.5V239.119L303.5 237.119L307.5 233.619L319.5 240.619L329.5 239.119L331 238.119H333V241.619H337.5L338.5 250.619L344.5 248.619L347 250.619L348.5 254.619L344.5 257.619V259.619L354 271.619L360 284.119L364 286.119L365.5 293.119L363 296.619Z" fill="#B28727"/>
<path d="M348.5 361.619L345.5 363.619L346 358.619L350 359.619L351 361.119L351.5 363.619L354 365.119L353 369.619L350 372.119L348 377.619L336.5 372.119V370.619L340 365.119H344.5V369.119L348.5 367.619L350.5 369.119V366.619L349 365.119L349.5 362.619L348.5 361.619Z" fill="#B28727"/>
</g>
<defs>
<clipPath id="clip0_27_866">
<rect width="1004" height="813" fill="white"/>
</clipPath>
</defs>
</svg>
