<svg width="1004" height="813" viewBox="0 0 1004 813" fill="none" xmlns="http://www.w3.org/2000/svg">
<g clip-path="url(#clip0_50_74)">
<rect width="1004" height="813" fill="white"/>
<rect x="-37" y="-80" width="1477" height="1104" fill="#1E1E1E"/>
<path d="M777.78 634.593L772.692 630.014L771.166 575.572L787.956 534.868L864.276 523.674L933.982 530.798L935 642.734C929.912 640.699 868.347 623.908 864.276 623.4C861.02 622.993 846.638 617.464 839.854 614.75C834.155 614.75 822.894 613.054 817.975 612.206V634.593H777.78Z" fill="#855D47" stroke="white" stroke-width="5.08803"/>
<path d="M741.146 583.713C740.739 577.2 734.871 574.894 731.988 574.555L706.039 538.938L644.982 510.954L569.68 437.178L512.185 362.893L518.799 333.382L567.136 326.768L601.225 346.611L650.579 350.681L746.234 389.859L790.5 413.264L802.202 421.405L893.278 462.109L917.701 468.215L933.982 479.917V534.359H902.945L899.893 541.482L884.12 538.938L883.102 546.062C871.705 547.69 857.323 541.991 851.556 538.938H839.345L832.731 531.815L830.695 540.465H808.817L796.097 547.588C797.114 550.641 799.15 557.968 799.15 562.852C799.15 567.737 805.594 578.795 808.817 583.713L812.887 603.556L801.694 618.312C793.892 621.364 777.475 627.877 774.218 629.505C770.148 631.54 761.498 626.452 760.989 624.926C760.481 623.4 758.445 616.276 755.901 615.768C753.357 615.259 750.813 609.662 750.813 608.136C750.813 606.914 746.064 602.878 743.69 601.012C743.012 597.96 741.553 590.226 741.146 583.713Z" fill="#A8A216" stroke="white" stroke-width="5.08803"/>
<path d="M352.93 207.708V188.373H302.049V293.695L442.988 377.139L470.972 353.734L484.71 352.716L497.938 339.996C509.743 336.333 517.103 339.487 519.308 341.523L529.484 336.943L555.433 341.523L569.68 338.979C577.82 341.828 593.085 352.716 599.699 357.804H614.454L638.368 366.963L659.229 364.928L668.387 371.033L712.653 389.859L787.956 409.193L787.876 409.101C784.654 405.341 769.998 388.238 752.34 377.139C738.093 368.184 734.871 363.91 735.041 362.892C731.784 349.46 727.239 345.084 725.373 344.576C724.356 344.915 721.913 344.779 720.285 341.523C718.25 337.452 716.724 335.926 710.618 335.417C705.733 335.01 703.834 340.335 703.495 343.049C693.319 338.979 682.295 344.745 678.055 348.137L668.387 345.593L666.861 339.996C665.674 335.926 661.569 327.683 654.65 327.276C647.73 326.869 644.982 324.393 644.474 323.206C641.624 317.507 637.859 316.083 636.333 316.083C632.262 316.083 632.262 324.902 632.771 329.311H625.648C625.139 330.159 622.9 331.754 618.016 331.347C613.131 330.94 609.536 340.675 608.349 345.593L606.822 338.979C599.088 333.28 597.494 327.446 597.664 325.241C596.646 321.171 584.944 310.486 584.944 317.609C584.944 323.308 579.516 323.715 576.803 323.206C574.768 322.527 571.104 320.865 572.732 319.644C574.361 318.423 572.732 315.743 571.715 314.556C570.358 311.843 568.051 305.907 569.68 303.871C571.715 301.327 572.224 298.274 569.68 298.274C567.644 298.274 565.44 300.31 564.592 301.327L559.504 307.433C557.638 307.942 552.686 309.265 547.801 310.486C542.917 311.707 543.052 308.959 543.731 307.433L546.783 299.801C549.327 297.257 548.819 288.098 536.099 289.116C525.923 289.93 527.449 302.684 529.484 308.959H515.238V314.556C506.69 313.335 500.143 318.457 497.938 321.171C491.324 314.556 502.009 308.959 504.553 308.959C507.097 308.959 510.15 305.907 510.15 303.871C510.15 302.243 512.524 300.479 513.711 299.801C515.238 299.292 517.375 297.359 513.711 293.695C510.048 290.032 504.383 292.169 502.009 293.695C499.804 295.222 493.97 297.969 488.271 296.748C482.573 295.527 482.166 285.046 482.674 279.958C486.338 283.214 492.681 281.314 495.394 279.958L486.236 269.273H497.938C498.956 267.577 500.381 263.371 497.938 260.114C494.886 256.044 487.762 253.5 486.236 253.5C485.015 253.5 479.282 250.108 476.569 248.412H457.234C454.012 247.055 447.872 245.155 449.093 248.412C450.314 251.668 446.21 250.786 444.005 249.938C439.935 247.733 430.776 243.12 426.706 242.306C422.636 241.492 421.618 243.324 421.618 244.341C424.671 250.447 425.18 248.412 431.794 253.5C437.086 257.57 444.514 271.138 447.567 277.414C450.281 276.905 456.013 277.414 457.234 283.519C458.455 289.625 466.901 295.9 470.972 298.274L464.866 302.345L470.972 312.012L464.866 325.241V319.644C465.273 309.875 457.573 303.362 453.673 301.327L442.988 296.748C442.479 294.374 441.36 289.32 440.952 288.098C440.444 286.572 436.882 288.607 435.356 293.695C434.135 297.766 431.116 298.444 429.759 298.274C428.911 297.766 426.808 296.748 425.18 296.748C423.551 296.748 423.144 302.175 423.144 304.889C421.516 310.18 417.039 308.79 415.004 307.433C415.411 303.362 410.764 299.631 408.389 298.274C423.45 288.505 425.858 274.87 425.18 269.273L411.951 267.746L396.178 260.114C390.072 258.079 387.528 261.98 387.019 264.185C385.391 257.672 389.055 255.026 391.09 254.517L402.283 253.5C408.389 249.022 405.845 246.885 403.81 246.377L396.178 243.324C393.329 243.324 393.973 239.932 394.651 238.236L396.178 233.148C394.143 226.635 389.903 228.738 388.037 230.604L383.967 238.236L368.702 243.324L362.088 238.236L374.299 233.148L370.229 226.024L375.317 223.48L377.861 220.428L371.755 213.813L352.93 207.708Z" fill="#1F68AC" stroke="white" stroke-width="5.08803"/>
<path d="M484.709 352.717L471.989 354.243L465.884 390.368L546.783 432.599V483.988V551.15H597.664H607.331L614.963 554.203L623.104 547.588H632.771L638.368 545.553C643.965 547.758 657.194 551.251 665.335 547.588C673.475 543.925 682.634 543.009 686.195 543.009C695.15 543.416 706.208 555.729 710.618 561.835V569.975C711.432 574.046 715.706 576.081 717.741 576.59C720.455 576.251 726.493 575.47 728.935 575.063C731.377 574.656 729.952 570.145 728.935 567.94L713.671 535.886V519.604L717.741 507.393C712.823 504.509 702.172 497.522 698.915 492.637C695.659 487.753 690.435 486.532 688.231 486.532H679.072L660.755 476.864C656.854 476.695 648.035 477.068 643.965 479.917C638.877 483.479 635.315 481.444 631.754 479.917C628.904 478.696 628.87 476.356 629.21 475.338L635.315 463.127L641.93 460.583L629.21 445.319L627.174 429.037C625.546 420.082 620.39 417.165 618.016 416.826L586.979 415.299L581.891 422.931L579.347 418.352C575.683 415.91 573.411 408.515 572.732 405.123C572.054 402.41 569.578 396.779 565.1 395.965C560.623 395.151 557.808 383.414 556.959 377.648C556.451 369.507 545.766 367.472 544.748 367.472C543.731 367.472 535.59 361.366 535.081 357.805C534.674 354.955 532.876 352.547 532.028 351.699C528.127 348.307 518.799 341.116 512.694 339.488C506.588 337.86 497.938 340.845 494.377 342.541L484.709 352.717Z" fill="#409959" stroke="white" stroke-width="5.08803"/>
<path d="M187.06 188.882V135.967H264.398L280.68 167.513L233.87 216.358L242.011 302.345L331.56 346.611L517.782 447.863V589.819L469.445 573.537L444.005 543.518L428.741 545.044L423.653 540.974H402.283L386.511 555.22H382.44C379.896 558.103 373.282 565.193 367.176 570.484C361.07 575.776 356.83 578.116 355.474 578.625C355.134 578.795 352.116 580.05 342.754 583.713C333.392 587.377 327.32 585.918 325.454 584.731L312.225 579.134C309.512 577.777 302.253 575.267 294.926 576.081C287.599 576.895 289.499 581.508 291.364 583.713C295.842 587.377 295.604 591.006 294.926 592.363L292.382 599.486L306.629 630.014H242.011V604.574C233.463 604.574 226.238 603.217 223.694 602.539C216.774 599.283 207.921 592.702 204.359 589.819H202.833C192.657 590.633 190.113 586.088 190.113 583.713C189.604 581.508 187.365 576.997 182.481 576.59C177.596 576.183 176.036 572.35 175.866 570.484V562.852H195.201V531.307H176.884V474.321H200.289V464.145H196.218L192.657 456.004L176.884 453.46V425.984H186.551V414.791H174.849V418.861H159.585V411.738H125.495V391.895H92.4225V380.701H86.3169V370.016H73.088L68 348.138L70.544 346.611V320.662H98.5282V310.995H156.023V291.152H170.269V278.94H202.324V268.256H155.005V188.882H187.06Z" fill="#3AA2A9" stroke="white" stroke-width="5.08803"/>
<path d="M216.062 146.651L188.077 135.458L231.835 122.229L249.643 120.702L264.398 111.035L278.136 112.562L283.732 109L312.225 120.702L320.366 118.158C321.384 118.498 324.945 119.787 331.051 122.229C337.157 124.671 337.666 127.656 337.157 128.843L333.086 134.949V143.09C333.086 152.452 340.888 159.202 344.789 161.407C346.994 162.764 352.421 166.698 356.491 171.583C360.562 176.467 355.813 186.508 352.93 190.917L334.104 207.708H327.489L331.051 214.831C332.069 214.661 334.511 215.035 336.139 217.884C337.767 220.733 334.782 222.463 333.086 222.972L341.227 229.586L337.157 234.165L341.227 238.745C348.147 245.664 350.216 253.5 350.386 256.553C351.234 260.623 354.354 269.985 360.053 274.87C365.751 279.754 369.551 287.759 370.738 291.151C368.703 296.85 366.837 309.129 366.159 314.556L373.282 322.697L412.46 320.662L418.056 316.083H432.303C437.594 320.967 445.362 323.884 448.585 324.732L471.481 353.225C471.074 366.251 472.668 371.203 473.516 372.051C475.042 375.273 478.909 382.532 482.166 385.789C486.236 389.859 498.956 398.509 507.097 398.509C513.61 398.509 520.326 400.883 522.87 402.07C545.257 412.246 548.31 418.352 553.907 422.931C558.384 426.595 558.825 450.915 558.486 462.618L569.68 477.882V507.901H561.03V523.165C568.323 527.575 584.537 537.412 591.049 541.482C597.562 545.553 598.173 549.962 597.664 551.658L588.505 559.29L581.382 560.817C579.347 560.817 575.684 561.733 577.312 565.396C578.94 569.06 583.757 568.619 585.961 567.94L592.067 572.519L599.699 569.467C599.36 570.484 599.699 572.723 603.769 573.537C607.84 574.351 607.84 577.607 607.331 579.134C603.769 579.643 595.73 580.762 592.067 581.169C587.488 581.678 588.505 586.257 588.505 588.292C588.505 589.92 586.809 594.398 585.961 596.433L579.347 604.574C577.99 605.083 575.48 607.118 576.294 611.188C577.108 615.259 581.043 617.633 582.909 618.312L595.629 625.435V631.541L584.944 645.278C580.873 646.499 576.803 649.179 575.276 650.366C572.054 653.08 567.746 661.458 576.294 673.262C584.842 685.067 596.816 688.357 601.734 688.526L612.928 687L618.016 681.912C621.069 680.894 622.595 681.912 623.613 682.93C624.427 683.744 623.274 687 622.595 688.526L606.313 704.808H488.271V694.123L492.85 684.965L528.975 652.91L520.835 642.225L509.641 635.102L492.85 611.188L486.236 590.327L469.954 573.537L490.306 572.519L495.394 560.817H504.553V527.745H486.236V511.972H472.498V487.04H429.25V478.391H438.917V467.706H442.479L441.461 456.004L444.005 449.898V441.248L450.62 432.599L424.162 409.702L396.687 394.947L376.335 390.877V380.701H360.562C352.421 377.818 333.392 371.542 322.401 369.507C311.411 367.472 289.329 357.805 279.662 353.225C274.913 350.681 263.38 345.492 255.239 345.085C247.099 344.677 231.495 339.488 224.711 336.944L216.57 323.206V300.819L214.026 270.29C211.177 267.034 203.002 265.202 199.271 264.694L194.692 254.009C187.772 245.054 185.025 236.031 184.516 232.639L193.674 209.743L201.815 199.567L229.291 191.426L257.275 175.653L262.363 167.004L260.836 160.389L241.502 153.266L216.062 146.651Z" fill="#D68F5D" stroke="white" stroke-width="5.08803"/>
<path d="M291.95 457.507V453.01H299.784V473.656H294.75V457.507H291.95Z" fill="white"/>
<path d="M499.778 470.125C500.419 469.616 500.711 469.381 500.655 469.418C502.502 467.891 503.954 466.637 505.01 465.657C506.085 464.676 506.99 463.649 507.725 462.574C508.46 461.499 508.828 460.453 508.828 459.435C508.828 458.662 508.649 458.058 508.291 457.625C507.932 457.191 507.395 456.974 506.679 456.974C505.962 456.974 505.396 457.248 504.982 457.794C504.586 458.322 504.388 459.077 504.388 460.057H499.721C499.759 458.454 500.098 457.116 500.739 456.041C501.399 454.966 502.257 454.174 503.313 453.665C504.388 453.156 505.576 452.902 506.877 452.902C509.12 452.902 510.808 453.477 511.939 454.627C513.089 455.777 513.664 457.276 513.664 459.124C513.664 461.141 512.976 463.017 511.6 464.752C510.223 466.468 508.47 468.146 506.339 469.786H513.975V473.717H499.778V470.125Z" fill="white"/>
<path d="M608.634 504.18C608.709 502.163 609.369 500.607 610.614 499.514C611.858 498.42 613.545 497.873 615.676 497.873C617.09 497.873 618.297 498.119 619.296 498.609C620.314 499.099 621.078 499.768 621.587 500.617C622.115 501.465 622.379 502.417 622.379 503.473C622.379 504.718 622.068 505.736 621.446 506.528C620.823 507.301 620.097 507.829 619.268 508.111V508.225C620.343 508.583 621.191 509.177 621.813 510.006C622.435 510.836 622.746 511.901 622.746 513.202C622.746 514.371 622.473 515.408 621.926 516.313C621.398 517.199 620.616 517.897 619.579 518.406C618.561 518.915 617.345 519.17 615.931 519.17C613.668 519.17 611.858 518.613 610.5 517.501C609.162 516.389 608.455 514.711 608.379 512.467H613.074C613.093 513.296 613.329 513.956 613.781 514.447C614.234 514.918 614.894 515.154 615.761 515.154C616.496 515.154 617.062 514.946 617.458 514.531C617.873 514.098 618.08 513.532 618.08 512.835C618.08 511.93 617.788 511.279 617.203 510.883C616.638 510.468 615.723 510.261 614.46 510.261H613.555V506.33H614.46C615.421 506.33 616.195 506.169 616.779 505.849C617.382 505.51 617.684 504.916 617.684 504.067C617.684 503.388 617.495 502.86 617.118 502.483C616.741 502.106 616.223 501.918 615.563 501.918C614.846 501.918 614.309 502.135 613.951 502.568C613.611 503.002 613.413 503.539 613.357 504.18H608.634Z" fill="white"/>
<path d="M473.569 332.323V328.42L482.506 315.637H487.908V328.138H490.227V332.323H487.908V336H483.072V332.323H473.569ZM483.411 320.954L478.66 328.138H483.411V320.954Z" fill="white"/>
<path d="M777.366 468.568H768.542V472.471C768.919 472.056 769.447 471.717 770.126 471.453C770.804 471.189 771.54 471.057 772.332 471.057C773.746 471.057 774.915 471.378 775.839 472.019C776.781 472.66 777.469 473.489 777.903 474.507C778.337 475.526 778.554 476.629 778.554 477.816C778.554 480.022 777.931 481.776 776.687 483.077C775.443 484.359 773.689 485 771.427 485C769.918 485 768.608 484.745 767.495 484.236C766.383 483.708 765.525 482.983 764.922 482.059C764.318 481.135 763.988 480.07 763.932 478.863H768.655C768.768 479.447 769.041 479.938 769.475 480.333C769.909 480.711 770.503 480.899 771.257 480.899C772.143 480.899 772.803 480.616 773.237 480.051C773.67 479.485 773.887 478.731 773.887 477.788C773.887 476.864 773.661 476.157 773.208 475.667C772.756 475.177 772.096 474.932 771.229 474.932C770.588 474.932 770.06 475.092 769.645 475.412C769.23 475.714 768.957 476.119 768.825 476.629H764.158V464.326H777.366V468.568Z" fill="white"/>
<path d="M879.232 580.926C879.081 580.228 878.817 579.71 878.44 579.37C878.063 579.012 877.526 578.833 876.828 578.833C875.753 578.833 874.98 579.304 874.509 580.247C874.038 581.171 873.792 582.642 873.774 584.659C874.188 583.999 874.782 583.481 875.555 583.103C876.347 582.726 877.215 582.538 878.157 582.538C880.005 582.538 881.485 583.122 882.598 584.291C883.729 585.46 884.294 587.091 884.294 589.184C884.294 590.56 884.012 591.767 883.446 592.804C882.899 593.841 882.088 594.652 881.014 595.236C879.958 595.821 878.704 596.113 877.252 596.113C874.349 596.113 872.331 595.208 871.2 593.398C870.069 591.569 869.503 588.948 869.503 585.536C869.503 581.953 870.097 579.295 871.285 577.56C872.491 575.807 874.415 574.93 877.054 574.93C878.468 574.93 879.656 575.213 880.618 575.778C881.598 576.325 882.334 577.051 882.824 577.956C883.333 578.861 883.635 579.851 883.729 580.926H879.232ZM876.998 586.356C876.187 586.356 875.508 586.601 874.961 587.091C874.433 587.563 874.17 588.241 874.17 589.127C874.17 590.033 874.415 590.74 874.905 591.249C875.414 591.758 876.13 592.012 877.054 592.012C877.884 592.012 878.534 591.767 879.006 591.277C879.496 590.768 879.741 590.08 879.741 589.212C879.741 588.326 879.505 587.629 879.034 587.119C878.563 586.61 877.884 586.356 876.998 586.356Z" fill="white"/>
</g>
<defs>
<clipPath id="clip0_50_74">
<rect width="1004" height="813" fill="white"/>
</clipPath>
</defs>
</svg>
