<svg width="1004" height="813" viewBox="0 0 1004 813" fill="none" xmlns="http://www.w3.org/2000/svg">
<g clip-path="url(#clip0_66_2)">
<rect width="1004" height="813" fill="white"/>
<rect x="-43" y="-42" width="1483" height="1066" fill="#1E1E1E"/>
<path d="M777.78 634.593L772.692 630.014L771.166 575.572L787.956 534.868L864.276 523.674L933.982 530.798L935 642.734C929.912 640.699 868.347 623.908 864.276 623.4C861.02 622.993 846.638 617.464 839.854 614.75C834.155 614.75 822.894 613.054 817.975 612.206V634.593H777.78Z" fill="#1E1E1E" stroke="white" stroke-width="5.08803"/>
<path d="M741.146 583.713C740.739 577.2 734.871 574.894 731.988 574.555L706.039 538.938L644.982 510.954L569.68 437.178L512.185 362.893L518.799 333.382L567.136 326.768L601.225 346.611L650.579 350.681L746.234 389.859L790.5 413.264L802.202 421.405L893.278 462.109L917.701 468.215L933.982 479.917V534.359H902.945L899.893 541.482L884.12 538.938L883.102 546.062C871.705 547.69 857.323 541.991 851.556 538.938H839.345L832.731 531.815L830.695 540.465H808.817L796.097 547.588C797.114 550.641 799.15 557.968 799.15 562.852C799.15 567.737 805.594 578.795 808.817 583.713L812.887 603.556L801.694 618.312C793.892 621.364 777.475 627.877 774.218 629.505C770.148 631.54 761.498 626.452 760.989 624.926C760.481 623.4 758.445 616.276 755.901 615.768C753.357 615.259 750.813 609.662 750.813 608.136C750.813 606.914 746.064 602.878 743.69 601.012C743.012 597.96 741.553 590.226 741.146 583.713Z" fill="#1E1E1E" stroke="white" stroke-width="5.08803"/>
<path d="M802.712 617.237L769.845 629.878C763.778 629.878 759.901 624.484 758.721 621.788C758.316 619.36 754.844 615.72 753.159 614.203C752.822 612.012 751.136 607.023 747.091 604.596C743.046 602.168 742.709 599.876 743.046 599.033C743.72 595.662 744.259 588.213 741.023 585.381C737.787 582.549 728.551 566.335 724.337 558.582C717.056 544.828 714.224 536.67 713.718 534.311C711.696 519.343 715.235 511.219 717.258 509.028C712.201 505.32 701.279 497.095 698.043 493.859C693.998 489.813 690.458 487.791 683.885 487.791C678.626 487.791 673.604 484.757 671.749 483.24C662.85 476.363 652.198 478.015 647.984 479.701C644.444 480.88 636.152 482.937 631.298 481.723C625.23 480.206 632.815 470.599 635.343 466.048C637.871 461.497 643.433 463.52 651.524 463.014C657.996 462.61 665.345 450.373 668.21 444.305C670.064 441.103 674.783 434.293 678.829 432.675C682.874 431.057 683.885 427.956 683.885 426.608C683.885 421.888 681.863 411.337 673.772 406.887C665.682 402.438 662.985 396.606 662.648 394.246C662.311 392.392 660.221 387.875 654.558 384.639C648.894 381.403 648.49 376.211 648.995 374.02C649.333 371.829 650.411 367.244 652.029 366.435C653.647 365.626 656.412 358.682 657.591 355.311C660.12 352.446 666.693 347.221 672.761 349.243C678.829 351.266 682.705 349.412 683.885 348.232C691.975 342.67 695.009 344.693 699.56 345.198C704.111 345.704 703.1 342.67 703.1 341.153C703.1 339.636 706.639 338.119 711.696 338.119C715.741 338.119 717.426 339.468 717.764 340.142C718.977 343.782 724.337 347.052 726.865 348.232L734.956 367.447L764.789 388.684L797.15 421.045L892.212 464.025L913.955 469.588C908.056 475.318 894.437 486.78 887.155 486.78L913.955 514.085L918 535.254L900.808 535.827L897.269 541.895L882.099 540.378V546.952L860.862 544.929L850.243 539.367H838.108L831.534 533.805L829.512 541.895H808.274L794.622 547.963L800.184 571.223L807.263 584.37L811.308 604.596L802.712 617.237Z" fill="#5C1313"/>
<path d="M741.146 583.713C740.739 577.2 734.871 574.894 731.988 574.555L706.039 538.938L644.982 510.954L569.68 437.178L512.185 362.893L518.799 333.382L567.136 326.768L601.225 346.611L650.579 350.681L746.234 389.859L790.5 413.264L802.202 421.405L893.278 462.109L917.701 468.215L933.982 479.917V534.359H902.945L899.893 541.482L884.12 538.938L883.102 546.062C871.705 547.69 857.323 541.991 851.556 538.938H839.345L832.731 531.815L830.695 540.465H808.817L796.097 547.588C797.114 550.641 799.15 557.968 799.15 562.852C799.15 567.737 805.594 578.795 808.817 583.713L812.887 603.556L801.694 618.312C793.892 621.364 777.475 627.877 774.218 629.505C770.148 631.54 761.498 626.452 760.989 624.926C760.481 623.4 758.445 616.276 755.901 615.768C753.357 615.259 750.813 609.662 750.813 608.136C750.813 606.914 746.064 602.878 743.69 601.012C743.012 597.96 741.553 590.226 741.146 583.713Z" stroke="white" stroke-width="5.08803"/>
<path d="M352.93 207.708V188.373H302.049V293.695L442.988 377.139L470.972 353.734L484.71 352.716L497.938 339.996C509.743 336.333 517.103 339.487 519.308 341.523L529.484 336.943L555.433 341.523L569.68 338.979C577.82 341.828 593.085 352.716 599.699 357.804H614.454L638.368 366.963L659.229 364.928L668.387 371.033L712.653 389.859L787.956 409.193L787.876 409.101C784.654 405.341 769.998 388.238 752.34 377.139C738.093 368.184 734.871 363.91 735.041 362.892C731.784 349.46 727.239 345.084 725.373 344.576C724.356 344.915 721.913 344.779 720.285 341.523C718.25 337.452 716.724 335.926 710.618 335.417C705.733 335.01 703.834 340.335 703.495 343.049C693.319 338.979 682.295 344.745 678.055 348.137L668.387 345.593L666.861 339.996C665.674 335.926 661.569 327.683 654.65 327.276C647.73 326.869 644.982 324.393 644.474 323.206C641.624 317.507 637.859 316.083 636.333 316.083C632.262 316.083 632.262 324.902 632.771 329.311H625.648C625.139 330.159 622.9 331.754 618.016 331.347C613.131 330.94 609.536 340.675 608.349 345.593L606.822 338.979C599.088 333.28 597.494 327.446 597.664 325.241C596.646 321.171 584.944 310.486 584.944 317.609C584.944 323.308 579.516 323.715 576.803 323.206C574.768 322.527 571.104 320.865 572.732 319.644C574.361 318.423 572.732 315.743 571.715 314.556C570.358 311.843 568.051 305.907 569.68 303.871C571.715 301.327 572.224 298.274 569.68 298.274C567.644 298.274 565.44 300.31 564.592 301.327L559.504 307.433C557.638 307.942 552.686 309.265 547.801 310.486C542.917 311.707 543.052 308.959 543.731 307.433L546.783 299.801C549.327 297.257 548.819 288.098 536.099 289.116C525.923 289.93 527.449 302.684 529.484 308.959H515.238V314.556C506.69 313.335 500.143 318.457 497.938 321.171C491.324 314.556 502.009 308.959 504.553 308.959C507.097 308.959 510.15 305.907 510.15 303.871C510.15 302.243 512.524 300.479 513.711 299.801C515.238 299.292 517.375 297.359 513.711 293.695C510.048 290.032 504.383 292.169 502.009 293.695C499.804 295.222 493.97 297.969 488.271 296.748C482.573 295.527 482.166 285.046 482.674 279.958C486.338 283.214 492.681 281.314 495.394 279.958L486.236 269.273H497.938C498.956 267.577 500.381 263.371 497.938 260.114C494.886 256.044 487.762 253.5 486.236 253.5C485.015 253.5 479.282 250.108 476.569 248.412H457.234C454.012 247.055 447.872 245.155 449.093 248.412C450.314 251.668 446.21 250.786 444.005 249.938C439.935 247.733 430.776 243.12 426.706 242.306C422.636 241.492 421.618 243.324 421.618 244.341C424.671 250.447 425.18 248.412 431.794 253.5C437.086 257.57 444.514 271.138 447.567 277.414C450.281 276.905 456.013 277.414 457.234 283.519C458.455 289.625 466.901 295.9 470.972 298.274L464.866 302.345L470.972 312.012L464.866 325.241V319.644C465.273 309.875 457.573 303.362 453.673 301.327L442.988 296.748C442.479 294.374 441.36 289.32 440.952 288.098C440.444 286.572 436.882 288.607 435.356 293.695C434.135 297.766 431.116 298.444 429.759 298.274C428.911 297.766 426.808 296.748 425.18 296.748C423.551 296.748 423.144 302.175 423.144 304.889C421.516 310.18 417.039 308.79 415.004 307.433C415.411 303.362 410.764 299.631 408.389 298.274C423.45 288.505 425.858 274.87 425.18 269.273L411.951 267.746L396.178 260.114C390.072 258.079 387.528 261.98 387.019 264.185C385.391 257.672 389.055 255.026 391.09 254.517L402.283 253.5C408.389 249.022 405.845 246.885 403.81 246.377L396.178 243.324C393.329 243.324 393.973 239.932 394.651 238.236L396.178 233.148C394.143 226.635 389.903 228.738 388.037 230.604L383.967 238.236L368.702 243.324L362.088 238.236L374.299 233.148L370.229 226.024L375.317 223.48L377.861 220.428L371.755 213.813L352.93 207.708Z" fill="#1E1E1E" stroke="white" stroke-width="5.08803"/>
<path d="M484.709 352.717L471.989 354.243L465.884 390.368L546.783 432.599V483.988V551.15H597.664H607.331L614.963 554.203L623.104 547.588H632.771L638.368 545.553C643.965 547.758 657.194 551.251 665.335 547.588C673.475 543.925 682.634 543.009 686.195 543.009C695.15 543.416 706.208 555.729 710.618 561.835V569.975C711.432 574.046 715.706 576.081 717.741 576.59C720.455 576.251 726.493 575.47 728.935 575.063C731.377 574.656 729.952 570.145 728.935 567.94L713.671 535.886V519.604L717.741 507.393C712.823 504.509 702.172 497.522 698.915 492.637C695.659 487.753 690.435 486.532 688.231 486.532H679.072L660.755 476.864C656.854 476.695 648.035 477.068 643.965 479.917C638.877 483.479 635.315 481.444 631.754 479.917C628.904 478.696 628.87 476.356 629.21 475.338L635.315 463.127L641.93 460.583L629.21 445.319L627.174 429.037C625.546 420.082 620.39 417.165 618.016 416.826L586.979 415.299L581.891 422.931L579.347 418.352C575.683 415.91 573.411 408.515 572.732 405.123C572.054 402.41 569.578 396.779 565.1 395.965C560.623 395.151 557.808 383.414 556.959 377.648C556.451 369.507 545.766 367.472 544.748 367.472C543.731 367.472 535.59 361.366 535.081 357.805C534.674 354.955 532.876 352.547 532.028 351.699C528.127 348.307 518.799 341.116 512.694 339.488C506.588 337.86 497.938 340.845 494.377 342.541L484.709 352.717Z" fill="#1E1E1E" stroke="white" stroke-width="5.08803"/>
<path d="M187.06 188.882V135.967H264.398L280.68 167.513L233.87 216.358L242.011 302.345L331.56 346.611L517.782 447.863V589.819L469.445 573.537L444.005 543.518L428.741 545.044L423.653 540.974H402.283L386.511 555.22H382.44C379.896 558.103 373.282 565.193 367.176 570.484C361.07 575.776 356.83 578.116 355.474 578.625C355.134 578.795 352.116 580.05 342.754 583.713C333.392 587.377 327.32 585.918 325.454 584.731L312.225 579.134C309.512 577.777 302.253 575.267 294.926 576.081C287.599 576.895 289.499 581.508 291.364 583.713C295.842 587.377 295.604 591.006 294.926 592.363L292.382 599.486L306.629 630.014H242.011V604.574C233.463 604.574 226.238 603.217 223.694 602.539C216.774 599.283 207.921 592.702 204.359 589.819H202.833C192.657 590.633 190.113 586.088 190.113 583.713C189.604 581.508 187.365 576.997 182.481 576.59C177.596 576.183 176.036 572.35 175.866 570.484V562.852H195.201V531.307H176.884V474.321H200.289V464.145H196.218L192.657 456.004L176.884 453.46V425.984H186.551V414.791H174.849V418.861H159.585V411.738H125.495V391.895H92.4225V380.701H86.3169V370.016H73.088L68 348.138L70.544 346.611V320.662H98.5282V310.995H156.023V291.152H170.269V278.94H202.324V268.256H155.005V188.882H187.06Z" fill="#1E1E1E" stroke="white" stroke-width="5.08803"/>
<path d="M216.062 146.651L188.077 135.458L231.835 122.229L249.643 120.702L264.398 111.035L278.136 112.562L283.732 109L312.225 120.702L320.366 118.158C321.384 118.498 324.945 119.787 331.051 122.229C337.157 124.671 337.666 127.656 337.157 128.843L333.086 134.949V143.09C333.086 152.452 340.888 159.202 344.789 161.407C346.994 162.764 352.421 166.698 356.491 171.583C360.562 176.467 355.813 186.508 352.93 190.917L334.104 207.708H327.489L331.051 214.831C332.069 214.661 334.511 215.035 336.139 217.884C337.767 220.733 334.782 222.463 333.086 222.972L341.227 229.586L337.157 234.165L341.227 238.745C348.147 245.664 350.216 253.5 350.386 256.553C351.234 260.623 354.354 269.985 360.053 274.87C365.751 279.754 369.551 287.759 370.738 291.151C368.703 296.85 366.837 309.129 366.159 314.556L373.282 322.697L412.46 320.662L418.056 316.083H432.303C437.594 320.967 445.362 323.884 448.585 324.732L471.481 353.225C471.074 366.251 472.668 371.203 473.516 372.051C475.042 375.273 478.909 382.532 482.166 385.789C486.236 389.859 498.956 398.509 507.097 398.509C513.61 398.509 520.326 400.883 522.87 402.07C545.257 412.246 548.31 418.352 553.907 422.931C558.384 426.595 558.825 450.915 558.486 462.618L569.68 477.882V507.901H561.03V523.165C568.323 527.575 584.537 537.412 591.049 541.482C597.562 545.553 598.173 549.962 597.664 551.658L588.505 559.29L581.382 560.817C579.347 560.817 575.684 561.733 577.312 565.396C578.94 569.06 583.757 568.619 585.961 567.94L592.067 572.519L599.699 569.467C599.36 570.484 599.699 572.723 603.769 573.537C607.84 574.351 607.84 577.607 607.331 579.134C603.769 579.643 595.73 580.762 592.067 581.169C587.488 581.678 588.505 586.257 588.505 588.292C588.505 589.92 586.809 594.398 585.961 596.433L579.347 604.574C577.99 605.083 575.48 607.118 576.294 611.188C577.108 615.259 581.043 617.633 582.909 618.312L595.629 625.435V631.541L584.944 645.278C580.873 646.499 576.803 649.179 575.276 650.366C572.054 653.08 567.746 661.458 576.294 673.262C584.842 685.067 596.816 688.357 601.734 688.526L612.928 687L618.016 681.912C621.069 680.894 622.595 681.912 623.613 682.93C624.427 683.744 623.274 687 622.595 688.526L606.313 704.808H488.271V694.123L492.85 684.965L528.975 652.91L520.835 642.225L509.641 635.102L492.85 611.188L486.236 590.327L469.954 573.537L490.306 572.519L495.394 560.817H504.553V527.745H486.236V511.972H472.498V487.04H429.25V478.391H438.917V467.706H442.479L441.461 456.004L444.005 449.898V441.248L450.62 432.599L424.162 409.702L396.687 394.947L376.335 390.877V380.701H360.562C352.421 377.818 333.392 371.542 322.401 369.507C311.411 367.472 289.329 357.805 279.662 353.225C274.913 350.681 263.38 345.492 255.239 345.085C247.099 344.677 231.495 339.488 224.711 336.944L216.57 323.206V300.819L214.026 270.29C211.177 267.034 203.002 265.202 199.271 264.694L194.692 254.009C187.772 245.054 185.025 236.031 184.516 232.639L193.674 209.743L201.815 199.567L229.291 191.426L257.275 175.653L262.363 167.004L260.836 160.389L241.502 153.266L216.062 146.651Z" fill="#1E1E1E" stroke="white" stroke-width="5.08803"/>
<path d="M671 349.119L657.5 356.119L654 362.682L660 362.119L669.5 368.619L713.5 387.119L780.5 404.619C772.5 393.619 742.5 373.119 738.5 370.619C735.3 368.619 733.167 365.119 732.5 363.619C730.9 356.419 726.833 349.619 725 347.119C721 347.519 718 342.952 717 340.619C715.5 339.119 713 337.619 709.5 338.119C706.7 338.519 705.667 343.952 705.5 346.619C693.9 341.019 683 347.286 679 351.119L671 349.119Z" fill="#5C1313"/>
<path d="M212.5 521.619V520.619H213.5V522.619H211.5V521.619H212.5Z" fill="#1E1E1E"/>
<path d="M204 532.119V526.619H209V528.619H218V529.119H219.5V530.619H225V532.119H227.5V534.119H229.5V540.119H227.5V545.619H224V548.119H222V549.619H220V551.619H215.5V549.619H210.5V551.619H208.5V554.619H206V551.119H208.5V542.119H204V535.619H206V532.119H204Z" fill="#1E1E1E"/>
<path d="M756.054 462.016H751.862L751.19 464H748.326L752.39 452.768H755.558L759.622 464H756.726L756.054 462.016ZM755.35 459.904L753.958 455.792L752.582 459.904H755.35ZM763.595 461.888H767.179V464H760.859V452.768H763.595V461.888ZM768.02 458.368C768.02 457.259 768.26 456.272 768.74 455.408C769.22 454.533 769.887 453.856 770.74 453.376C771.604 452.885 772.58 452.64 773.668 452.64C775.002 452.64 776.143 452.992 777.092 453.696C778.042 454.4 778.676 455.36 778.996 456.576H775.988C775.764 456.107 775.444 455.749 775.028 455.504C774.623 455.259 774.159 455.136 773.636 455.136C772.794 455.136 772.111 455.429 771.588 456.016C771.066 456.603 770.804 457.387 770.804 458.368C770.804 459.349 771.066 460.133 771.588 460.72C772.111 461.307 772.794 461.6 773.636 461.6C774.159 461.6 774.623 461.477 775.028 461.232C775.444 460.987 775.764 460.629 775.988 460.16H778.996C778.676 461.376 778.042 462.336 777.092 463.04C776.143 463.733 775.002 464.08 773.668 464.08C772.58 464.08 771.604 463.84 770.74 463.36C769.887 462.869 769.22 462.192 768.74 461.328C768.26 460.464 768.02 459.477 768.02 458.368ZM785.984 464.112C784.928 464.112 783.957 463.867 783.072 463.376C782.197 462.885 781.498 462.203 780.976 461.328C780.464 460.443 780.208 459.451 780.208 458.352C780.208 457.253 780.464 456.267 780.976 455.392C781.498 454.517 782.197 453.835 783.072 453.344C783.957 452.853 784.928 452.608 785.984 452.608C787.04 452.608 788.005 452.853 788.88 453.344C789.765 453.835 790.458 454.517 790.96 455.392C791.472 456.267 791.728 457.253 791.728 458.352C791.728 459.451 791.472 460.443 790.96 461.328C790.448 462.203 789.754 462.885 788.88 463.376C788.005 463.867 787.04 464.112 785.984 464.112ZM785.984 461.616C786.88 461.616 787.594 461.317 788.128 460.72C788.672 460.123 788.944 459.333 788.944 458.352C788.944 457.36 788.672 456.571 788.128 455.984C787.594 455.387 786.88 455.088 785.984 455.088C785.077 455.088 784.352 455.381 783.808 455.968C783.274 456.555 783.008 457.349 783.008 458.352C783.008 459.344 783.274 460.139 783.808 460.736C784.352 461.323 785.077 461.616 785.984 461.616ZM800.242 462.016H796.05L795.378 464H792.514L796.578 452.768H799.746L803.81 464H800.914L800.242 462.016ZM799.538 459.904L798.146 455.792L796.77 459.904H799.538ZM805.671 452.768H808.471L806.679 457.056H804.839L805.671 452.768ZM814.142 464.112C813.321 464.112 812.585 463.979 811.934 463.712C811.283 463.445 810.761 463.051 810.366 462.528C809.982 462.005 809.779 461.376 809.758 460.64H812.67C812.713 461.056 812.857 461.376 813.102 461.6C813.347 461.813 813.667 461.92 814.062 461.92C814.467 461.92 814.787 461.829 815.022 461.648C815.257 461.456 815.374 461.195 815.374 460.864C815.374 460.587 815.278 460.357 815.086 460.176C814.905 459.995 814.675 459.845 814.398 459.728C814.131 459.611 813.747 459.477 813.246 459.328C812.521 459.104 811.929 458.88 811.47 458.656C811.011 458.432 810.617 458.101 810.286 457.664C809.955 457.227 809.79 456.656 809.79 455.952C809.79 454.907 810.169 454.091 810.926 453.504C811.683 452.907 812.67 452.608 813.886 452.608C815.123 452.608 816.121 452.907 816.878 453.504C817.635 454.091 818.041 454.912 818.094 455.968H815.134C815.113 455.605 814.979 455.323 814.734 455.12C814.489 454.907 814.174 454.8 813.79 454.8C813.459 454.8 813.193 454.891 812.99 455.072C812.787 455.243 812.686 455.493 812.686 455.824C812.686 456.187 812.857 456.469 813.198 456.672C813.539 456.875 814.073 457.093 814.798 457.328C815.523 457.573 816.11 457.808 816.558 458.032C817.017 458.256 817.411 458.581 817.742 459.008C818.073 459.435 818.238 459.984 818.238 460.656C818.238 461.296 818.073 461.877 817.742 462.4C817.422 462.923 816.953 463.339 816.334 463.648C815.715 463.957 814.985 464.112 814.142 464.112ZM740.689 478.96V481.232H744.353V483.344H740.689V485.808H744.833V488H737.953V476.768H744.833V478.96H740.689ZM753.489 488L751.201 484.56L749.185 488H746.081L749.681 482.288L746.001 476.768H749.185L751.441 480.16L753.425 476.768H756.529L752.961 482.432L756.673 488H753.489ZM766.607 480.384C766.607 481.035 766.457 481.632 766.159 482.176C765.86 482.709 765.401 483.141 764.783 483.472C764.164 483.803 763.396 483.968 762.479 483.968H760.783V488H758.047V476.768H762.479C763.375 476.768 764.132 476.923 764.751 477.232C765.369 477.541 765.833 477.968 766.143 478.512C766.452 479.056 766.607 479.68 766.607 480.384ZM762.271 481.792C762.793 481.792 763.183 481.669 763.439 481.424C763.695 481.179 763.823 480.832 763.823 480.384C763.823 479.936 763.695 479.589 763.439 479.344C763.183 479.099 762.793 478.976 762.271 478.976H760.783V481.792H762.271ZM775.023 486.016H770.831L770.159 488H767.295L771.359 476.768H774.527L778.591 488H775.695L775.023 486.016ZM774.319 483.904L772.927 479.792L771.551 483.904H774.319ZM789.876 488H787.14L782.564 481.072V488H779.828V476.768H782.564L787.14 483.728V476.768H789.876V488ZM795.923 488.112C795.102 488.112 794.366 487.979 793.715 487.712C793.065 487.445 792.542 487.051 792.147 486.528C791.763 486.005 791.561 485.376 791.539 484.64H794.451C794.494 485.056 794.638 485.376 794.883 485.6C795.129 485.813 795.449 485.92 795.843 485.92C796.249 485.92 796.569 485.829 796.803 485.648C797.038 485.456 797.155 485.195 797.155 484.864C797.155 484.587 797.059 484.357 796.867 484.176C796.686 483.995 796.457 483.845 796.179 483.728C795.913 483.611 795.529 483.477 795.027 483.328C794.302 483.104 793.71 482.88 793.251 482.656C792.793 482.432 792.398 482.101 792.067 481.664C791.737 481.227 791.571 480.656 791.571 479.952C791.571 478.907 791.95 478.091 792.707 477.504C793.465 476.907 794.451 476.608 795.667 476.608C796.905 476.608 797.902 476.907 798.659 477.504C799.417 478.091 799.822 478.912 799.875 479.968H796.915C796.894 479.605 796.761 479.323 796.515 479.12C796.27 478.907 795.955 478.8 795.571 478.8C795.241 478.8 794.974 478.891 794.771 479.072C794.569 479.243 794.467 479.493 794.467 479.824C794.467 480.187 794.638 480.469 794.979 480.672C795.321 480.875 795.854 481.093 796.579 481.328C797.305 481.573 797.891 481.808 798.339 482.032C798.798 482.256 799.193 482.581 799.523 483.008C799.854 483.435 800.019 483.984 800.019 484.656C800.019 485.296 799.854 485.877 799.523 486.4C799.203 486.923 798.734 487.339 798.115 487.648C797.497 487.957 796.766 488.112 795.923 488.112ZM804.439 476.768V488H801.703V476.768H804.439ZM811.734 488.112C810.678 488.112 809.707 487.867 808.822 487.376C807.947 486.885 807.248 486.203 806.726 485.328C806.214 484.443 805.958 483.451 805.958 482.352C805.958 481.253 806.214 480.267 806.726 479.392C807.248 478.517 807.947 477.835 808.822 477.344C809.707 476.853 810.678 476.608 811.734 476.608C812.79 476.608 813.755 476.853 814.63 477.344C815.515 477.835 816.208 478.517 816.71 479.392C817.222 480.267 817.478 481.253 817.478 482.352C817.478 483.451 817.222 484.443 816.71 485.328C816.198 486.203 815.504 486.885 814.63 487.376C813.755 487.867 812.79 488.112 811.734 488.112ZM811.734 485.616C812.63 485.616 813.344 485.317 813.878 484.72C814.422 484.123 814.694 483.333 814.694 482.352C814.694 481.36 814.422 480.571 813.878 479.984C813.344 479.387 812.63 479.088 811.734 479.088C810.827 479.088 810.102 479.381 809.558 479.968C809.024 480.555 808.758 481.349 808.758 482.352C808.758 483.344 809.024 484.139 809.558 484.736C810.102 485.323 810.827 485.616 811.734 485.616ZM829.048 488H826.312L821.736 481.072V488H819V476.768H821.736L826.312 483.728V476.768H829.048V488ZM750.638 504.384C750.638 505.035 750.489 505.632 750.19 506.176C749.891 506.709 749.433 507.141 748.814 507.472C748.195 507.803 747.427 507.968 746.51 507.968H744.814V512H742.078V500.768H746.51C747.406 500.768 748.163 500.923 748.782 501.232C749.401 501.541 749.865 501.968 750.174 502.512C750.483 503.056 750.638 503.68 750.638 504.384ZM746.302 505.792C746.825 505.792 747.214 505.669 747.47 505.424C747.726 505.179 747.854 504.832 747.854 504.384C747.854 503.936 747.726 503.589 747.47 503.344C747.214 503.099 746.825 502.976 746.302 502.976H744.814V505.792H746.302ZM757.79 512L755.454 507.76H754.798V512H752.062V500.768H756.654C757.54 500.768 758.292 500.923 758.91 501.232C759.54 501.541 760.009 501.968 760.318 502.512C760.628 503.045 760.782 503.643 760.782 504.304C760.782 505.051 760.569 505.717 760.142 506.304C759.726 506.891 759.108 507.307 758.286 507.552L760.878 512H757.79ZM754.798 505.824H756.494C756.996 505.824 757.369 505.701 757.614 505.456C757.87 505.211 757.998 504.864 757.998 504.416C757.998 503.989 757.87 503.653 757.614 503.408C757.369 503.163 756.996 503.04 756.494 503.04H754.798V505.824ZM767.812 512.112C766.756 512.112 765.785 511.867 764.9 511.376C764.025 510.885 763.326 510.203 762.804 509.328C762.292 508.443 762.036 507.451 762.036 506.352C762.036 505.253 762.292 504.267 762.804 503.392C763.326 502.517 764.025 501.835 764.9 501.344C765.785 500.853 766.756 500.608 767.812 500.608C768.868 500.608 769.833 500.853 770.708 501.344C771.593 501.835 772.286 502.517 772.788 503.392C773.3 504.267 773.556 505.253 773.556 506.352C773.556 507.451 773.3 508.443 772.788 509.328C772.276 510.203 771.582 510.885 770.708 511.376C769.833 511.867 768.868 512.112 767.812 512.112ZM767.812 509.616C768.708 509.616 769.422 509.317 769.956 508.72C770.5 508.123 770.772 507.333 770.772 506.352C770.772 505.36 770.5 504.571 769.956 503.984C769.422 503.387 768.708 503.088 767.812 503.088C766.905 503.088 766.18 503.381 765.636 503.968C765.102 504.555 764.836 505.349 764.836 506.352C764.836 507.344 765.102 508.139 765.636 508.736C766.18 509.323 766.905 509.616 767.812 509.616ZM783.638 504.384C783.638 505.035 783.489 505.632 783.19 506.176C782.891 506.709 782.433 507.141 781.814 507.472C781.195 507.803 780.427 507.968 779.51 507.968H777.814V512H775.078V500.768H779.51C780.406 500.768 781.163 500.923 781.782 501.232C782.401 501.541 782.865 501.968 783.174 502.512C783.483 503.056 783.638 503.68 783.638 504.384ZM779.302 505.792C779.825 505.792 780.214 505.669 780.47 505.424C780.726 505.179 780.854 504.832 780.854 504.384C780.854 503.936 780.726 503.589 780.47 503.344C780.214 503.099 779.825 502.976 779.302 502.976H777.814V505.792H779.302ZM790.374 512.112C789.318 512.112 788.348 511.867 787.462 511.376C786.588 510.885 785.889 510.203 785.366 509.328C784.854 508.443 784.598 507.451 784.598 506.352C784.598 505.253 784.854 504.267 785.366 503.392C785.889 502.517 786.588 501.835 787.462 501.344C788.348 500.853 789.318 500.608 790.374 500.608C791.43 500.608 792.396 500.853 793.27 501.344C794.156 501.835 794.849 502.517 795.35 503.392C795.862 504.267 796.118 505.253 796.118 506.352C796.118 507.451 795.862 508.443 795.35 509.328C794.838 510.203 794.145 510.885 793.27 511.376C792.396 511.867 791.43 512.112 790.374 512.112ZM790.374 509.616C791.27 509.616 791.985 509.317 792.518 508.72C793.062 508.123 793.334 507.333 793.334 506.352C793.334 505.36 793.062 504.571 792.518 503.984C791.985 503.387 791.27 503.088 790.374 503.088C789.468 503.088 788.742 503.381 788.198 503.968C787.665 504.555 787.398 505.349 787.398 506.352C787.398 507.344 787.665 508.139 788.198 508.736C788.742 509.323 789.468 509.616 790.374 509.616ZM801.704 512.112C800.883 512.112 800.147 511.979 799.496 511.712C798.846 511.445 798.323 511.051 797.928 510.528C797.544 510.005 797.342 509.376 797.32 508.64H800.232C800.275 509.056 800.419 509.376 800.664 509.6C800.91 509.813 801.23 509.92 801.624 509.92C802.03 509.92 802.35 509.829 802.584 509.648C802.819 509.456 802.936 509.195 802.936 508.864C802.936 508.587 802.84 508.357 802.648 508.176C802.467 507.995 802.238 507.845 801.96 507.728C801.694 507.611 801.31 507.477 800.808 507.328C800.083 507.104 799.491 506.88 799.032 506.656C798.574 506.432 798.179 506.101 797.848 505.664C797.518 505.227 797.352 504.656 797.352 503.952C797.352 502.907 797.731 502.091 798.488 501.504C799.246 500.907 800.232 500.608 801.448 500.608C802.686 500.608 803.683 500.907 804.44 501.504C805.198 502.091 805.603 502.912 805.656 503.968H802.696C802.675 503.605 802.542 503.323 802.296 503.12C802.051 502.907 801.736 502.8 801.352 502.8C801.022 502.8 800.755 502.891 800.552 503.072C800.35 503.243 800.248 503.493 800.248 503.824C800.248 504.187 800.419 504.469 800.76 504.672C801.102 504.875 801.635 505.093 802.36 505.328C803.086 505.573 803.672 505.808 804.12 506.032C804.579 506.256 804.974 506.581 805.304 507.008C805.635 507.435 805.8 507.984 805.8 508.656C805.8 509.296 805.635 509.877 805.304 510.4C804.984 510.923 804.515 511.339 803.896 511.648C803.278 511.957 802.547 512.112 801.704 512.112ZM814.476 510.016H810.284L809.612 512H806.748L810.812 500.768H813.98L818.044 512H815.148L814.476 510.016ZM813.772 507.904L812.38 503.792L811.004 507.904H813.772ZM822.017 509.888H825.601V512H819.281V500.768H822.017V509.888Z" fill="white"/>
</g>
<defs>
<clipPath id="clip0_66_2">
<rect width="1004" height="813" fill="white"/>
</clipPath>
</defs>
</svg>
